<?xml version="1.0" standalone="no"?>
<!DOCTYPE svg PUBLIC "-//W3C//DTD SVG 20010904//EN"
 "http://www.w3.org/TR/2001/REC-SVG-20010904/DTD/svg10.dtd">
<svg version="1.0" xmlns="http://www.w3.org/2000/svg"
 width="225.000000pt" height="225.000000pt" viewBox="0 0 225.000000 225.000000"
 preserveAspectRatio="xMidYMid meet">
<metadata>
Created by potrace 1.16, written by Peter Selinger 2001-2019
</metadata>
<g transform="translate(0.000000,225.000000) scale(0.100000,-0.100000)"
fill="#000000" stroke="none">
<path d="M1082 1854 c-29 -20 -30 -79 -2 -109 19 -21 20 -26 7 -196 l-12 -174
-70 -7 c-229 -21 -428 -107 -549 -239 -31 -33 -56 -64 -56 -70 0 -5 -4 -9 -10
-9 -5 0 -10 5 -10 11 0 18 -105 171 -133 196 -69 59 -104 64 -130 20 -20 -36
-16 -276 7 -367 18 -72 63 -179 88 -210 48 -58 111 -75 169 -44 30 15 31 15
67 -23 153 -162 400 -253 683 -253 265 0 505 87 654 236 55 54 55 54 85 39
100 -52 193 32 246 222 44 158 43 387 -2 424 -37 31 -128 -46 -211 -179 -45
-72 -46 -73 -61 -50 -101 153 -339 274 -582 296 l-85 7 -7 105 c-16 262 -17
243 5 267 59 66 -19 158 -91 107z m84 -29 c15 -23 15 -27 0 -50 -9 -14 -20
-25 -25 -25 -5 0 -7 -37 -4 -82 10 -175 20 -298 25 -303 3 -3 45 -10 94 -16
253 -28 478 -145 575 -298 l28 -44 18 33 c72 132 177 255 213 248 49 -10 52
-250 6 -410 -28 -95 -73 -177 -111 -202 -33 -21 -83 -20 -121 3 l-31 19 -43
-50 c-84 -98 -255 -187 -428 -226 -111 -24 -369 -23 -477 2 -180 41 -343 128
-424 225 l-42 50 -32 -19 c-41 -25 -91 -25 -126 -1 -36 26 -84 118 -111 211
-42 150 -36 389 10 398 36 6 150 -126 203 -235 12 -24 24 -43 27 -43 4 0 16
18 28 39 28 50 126 140 194 179 117 67 275 114 418 125 25 1 50 6 56 10 7 4
14 59 18 134 4 71 9 154 12 186 5 52 3 61 -15 73 -23 17 -28 63 -9 82 20 20
56 14 74 -13z"/>
<path d="M1091 1261 c-37 -37 -39 -124 -4 -163 44 -49 108 9 100 89 -8 81 -54
116 -96 74z"/>
<path d="M717 1188 c-25 -13 -40 -81 -28 -124 30 -109 121 -92 121 22 0 75
-48 128 -93 102z"/>
<path d="M1461 1164 c-39 -50 -24 -158 24 -170 56 -14 98 72 73 149 -11 36
-17 42 -44 45 -25 2 -37 -3 -53 -24z"/>
<path d="M1005 784 c-22 -9 -57 -30 -77 -45 -36 -29 -38 -29 -175 -29 -88 0
-143 4 -150 11 -18 18 -53 1 -53 -26 0 -28 34 -43 55 -25 10 8 57 12 146 11
131 -2 133 -2 166 -31 64 -56 111 -75 193 -75 83 0 138 22 196 76 l31 30 147
0 c99 1 151 -3 161 -11 22 -18 55 -3 55 26 0 29 -25 42 -51 26 -12 -8 -72 -12
-165 -12 -139 0 -149 1 -178 24 -60 45 -98 58 -180 62 -60 3 -92 0 -121 -12z"/>
</g>
</svg>
